<svg xmlns="http://www.w3.org/2000/svg" width="1024" height="1024" viewBox="0 0 1024 1024">
<g>
<path d="M 483.83 637.00 C481.62,643.88 479.68,649.65 479.50,649.83 C479.33,650.00 478.94,649.33 478.65,648.33 C477.99,646.07 472.47,619.52 471.10,612.00 C470.55,608.97 467.14,592.33 463.52,575.00 C459.90,557.67 456.24,540.12 455.39,536.00 C450.10,510.39 448.58,506.97 442.58,507.03 C439.17,507.07 436.87,508.48 435.27,511.50 C434.42,513.11 419.97,560.64 409.06,597.71 C407.89,601.68 406.55,605.16 406.08,605.45 C404.78,606.25 403.91,604.83 394.48,586.50 C384.33,566.78 381.27,563.01 374.79,562.28 C370.87,561.84 369.90,562.15 366.88,564.80 C364.98,566.47 361.69,571.00 359.56,574.88 C357.62,578.44 356.70,580.84 355.04,582.48 C351.55,585.90 344.77,585.95 318.25,586.15 C314.70,586.18 310.80,586.21 306.50,586.25 C281.75,586.49 272.08,586.42 285.00,586.09 C297.92,585.77 308.46,585.28 308.42,585.00 C308.37,584.72 307.35,581.46 306.15,577.75 C298.81,555.03 299.14,529.37 307.04,507.72 C325.15,458.10 375.37,428.61 426.56,437.54 C445.46,440.83 464.37,449.60 477.56,461.19 L 481.06 464.26 L 486.18 459.94 C502.64,446.07 525.03,437.39 547.17,436.30 C568.84,435.24 584.31,438.54 603.39,448.28 C618.82,456.16 630.43,466.21 641.77,481.50 C653.83,497.77 662.00,523.05 662.00,544.13 C662.00,554.99 658.43,573.89 654.40,584.39 C653.80,585.97 654.98,586.08 669.38,585.80 C677.97,585.64 685.00,585.81 685.00,586.19 C685.00,586.57 659.20,586.61 627.66,586.28 C584.26,585.83 569.12,585.98 565.41,586.90 C561.41,587.89 559.15,589.45 553.24,595.30 C547.18,601.28 545.69,602.30 544.24,601.41 C543.28,600.83 538.40,593.20 533.39,584.45 C528.38,575.71 523.20,567.74 521.87,566.75 C520.54,565.76 517.78,564.68 515.74,564.34 C512.39,563.80 511.64,564.13 508.12,567.64 C505.98,569.79 503.77,573.11 503.22,575.02 C501.81,579.91 488.64,622.00 483.83,637.00 ZM 484.80 765.57 C483.31,766.35 481.29,767.00 480.30,767.00 C479.25,767.00 446.46,734.88 401.43,689.75 C343.52,631.70 323.20,610.71 319.66,605.32 C316.65,600.71 314.16,597.98 312.73,597.70 C311.50,597.47 320.08,597.21 331.80,597.14 C355.22,596.99 356.87,596.63 362.32,590.61 C363.87,588.90 366.80,584.47 368.82,580.76 C370.84,577.05 373.18,574.01 374.01,574.01 C375.94,574.00 376.28,574.58 386.39,594.72 C395.40,612.68 398.32,616.59 403.45,617.56 C407.90,618.39 413.50,615.86 415.42,612.16 C416.27,610.51 421.01,595.51 425.95,578.83 L 427.43 573.81 C439.55,532.87 441.09,527.67 442.01,527.77 C442.18,527.79 442.33,528.00 442.52,528.19 C442.81,528.47 444.36,535.41 445.98,543.60 C449.40,561.00 455.65,591.48 459.94,611.75 C461.59,619.59 464.59,633.99 466.59,643.75 C470.65,663.50 471.33,665.77 473.79,667.64 C476.55,669.73 481.81,669.29 484.31,666.75 C485.81,665.23 488.89,656.89 493.81,641.00 C506.17,601.13 514.45,576.50 515.50,576.54 C516.05,576.56 518.93,580.83 521.89,586.04 C533.93,607.16 535.25,609.18 538.33,611.06 C540.17,612.18 543.32,612.99 545.82,613.00 C549.87,613.00 550.69,612.48 558.50,605.00 L 566.85 597.00 L 611.18 597.15 C635.55,597.23 653.62,597.57 651.33,597.90 C647.53,598.45 646.78,599.08 642.88,605.00 C637.83,612.67 629.00,621.82 548.50,702.78 C514.95,736.52 486.28,764.78 484.80,765.57 Z" fill="rgb(43,183,155)"/>
<path d="M 483.83 637.00 C488.64,622.00 501.81,579.91 503.22,575.02 C503.77,573.11 505.98,569.79 508.12,567.64 C511.64,564.13 512.39,563.80 515.74,564.34 C517.78,564.68 520.54,565.76 521.87,566.75 C523.20,567.74 528.38,575.71 533.39,584.45 C538.40,593.20 543.28,600.83 544.24,601.41 C545.69,602.30 547.18,601.28 553.24,595.30 C559.15,589.45 561.41,587.89 565.41,586.90 C569.12,585.98 584.26,585.83 627.66,586.28 C659.20,586.61 685.00,586.57 685.00,586.19 C685.00,585.81 677.97,585.64 669.38,585.80 C654.98,586.08 653.80,585.97 654.40,584.39 C653.83,585.91 655.14,586.03 669.13,585.78 L 684.50 585.50 L 685.00 535.33 C685.28,507.74 685.87,484.79 686.33,484.33 C686.79,483.87 709.97,483.27 737.83,483.00 L 788.50 482.50 L 788.76 436.25 L 789.02 390.00 L 739.20 390.00 C690.44,390.00 689.33,389.96 687.19,387.96 L 685.00 385.92 L 685.00 286.00 L 592.00 286.00 L 592.00 336.00 C592.00,384.67 591.95,386.05 590.00,388.00 C588.05,389.95 586.67,390.00 538.00,390.00 L 488.00 390.00 L 488.00 411.46 C488.00,431.66 487.89,432.99 486.07,433.96 C483.14,435.53 481.29,435.23 479.04,432.81 C477.11,430.74 477.00,429.39 477.00,406.92 C477.00,385.82 477.19,382.99 478.75,381.10 C480.48,379.00 480.93,378.98 530.50,378.74 L 580.50 378.50 L 580.76 328.57 C580.99,283.86 581.19,278.45 582.66,276.82 C584.22,275.10 587.39,275.00 638.53,275.00 C687.74,275.00 692.88,275.15 694.13,276.65 C695.24,277.99 695.60,287.97 696.00,328.40 L 696.50 378.50 L 746.41 378.76 C781.24,378.94 796.72,379.36 797.66,380.13 C798.75,381.04 799.00,391.44 799.00,436.07 L 799.00 490.89 L 796.78 492.44 C794.84,493.80 788.26,494.00 745.28,494.00 L 696.00 494.00 L 696.00 543.85 C696.00,590.06 695.87,593.80 694.25,595.24 C692.81,596.51 688.50,596.86 670.08,597.19 C660.14,597.36 654.55,597.50 651.32,597.78 C649.27,597.49 632.68,597.22 611.18,597.15 L 566.85 597.00 L 558.50 605.00 C550.69,612.48 549.87,613.00 545.82,613.00 C543.32,612.99 540.17,612.18 538.33,611.06 C535.25,609.18 533.93,607.16 521.89,586.04 C518.93,580.83 516.05,576.56 515.50,576.54 C514.45,576.50 506.17,601.13 493.81,641.00 C488.89,656.89 485.81,665.23 484.31,666.75 C481.81,669.29 476.55,669.73 473.79,667.64 C471.33,665.77 470.65,663.50 466.59,643.75 C464.59,633.99 461.59,619.59 459.94,611.75 C455.65,591.48 449.40,561.00 445.98,543.60 C444.36,535.41 442.81,528.47 442.52,528.19 C442.33,528.00 442.18,527.79 442.01,527.77 C441.09,527.67 439.55,532.87 427.43,573.81 L 425.95 578.83 C421.01,595.51 416.27,610.51 415.42,612.16 C413.50,615.86 407.90,618.39 403.45,617.56 C398.32,616.59 395.40,612.68 386.39,594.72 C376.28,574.58 375.94,574.00 374.01,574.01 C373.18,574.01 370.84,577.05 368.82,580.76 C366.80,584.47 363.87,588.90 362.32,590.61 C356.87,596.63 355.22,596.99 331.80,597.14 C320.08,597.21 311.50,597.47 312.73,597.70 C313.08,597.77 313.49,597.98 313.96,598.33 C313.87,598.29 313.78,598.24 313.69,598.20 C312.06,597.43 310.06,597.43 306.42,597.43 C305.64,597.43 304.78,597.43 303.84,597.43 C263.65,597.14 261.17,597.02 259.57,595.43 C257.46,593.32 257.58,589.69 259.83,587.65 C261.42,586.22 264.66,586.00 284.66,586.00 C286.05,586.00 287.40,586.00 288.73,585.99 C287.51,586.03 286.27,586.06 285.00,586.09 C272.08,586.42 281.75,586.49 306.50,586.25 C310.80,586.21 314.70,586.18 318.25,586.15 C344.77,585.95 351.55,585.90 355.04,582.48 C356.70,580.84 357.62,578.44 359.56,574.88 C361.69,571.00 364.98,566.47 366.88,564.80 C369.90,562.15 370.87,561.84 374.79,562.28 C381.27,563.01 384.33,566.78 394.48,586.50 C403.91,604.83 404.78,606.25 406.08,605.45 C406.55,605.16 407.89,601.68 409.06,597.71 C419.97,560.64 434.42,513.11 435.27,511.50 C436.87,508.48 439.17,507.07 442.58,507.03 C448.58,506.97 450.10,510.39 455.39,536.00 C456.24,540.12 459.90,557.67 463.52,575.00 C467.14,592.33 470.55,608.97 471.10,612.00 C472.47,619.52 477.99,646.07 478.65,648.33 C478.94,649.33 479.33,650.00 479.50,649.83 C479.68,649.65 481.62,643.88 483.83,637.00 ZM 321.99 608.32 C329.21,616.90 351.16,639.36 401.43,689.75 C445.07,733.49 477.21,765.00 480.11,766.91 C473.44,762.73 328.08,617.11 322.23,608.67 ZM 532.21 719.12 C537.44,713.89 542.90,708.41 548.50,702.78 C567.80,683.37 582.99,668.08 594.98,655.95 C585.50,665.58 574.26,676.92 560.91,690.35 C550.83,700.50 541.12,710.22 532.21,719.12 ZM 305.13 574.39 C302.59,565.88 301.19,556.67 300.93,547.37 C301.22,556.50 302.62,565.63 305.13,574.39 ZM 484.80 765.57 C485.23,765.34 488.00,762.75 492.53,758.37 C487.94,762.81 485.20,765.39 484.80,765.60 C483.31,766.37 481.30,767.00 480.32,767.00 C481.31,766.99 483.32,766.35 484.80,765.57 ZM 308.25 585.07 C308.22,584.69 308.11,584.09 307.93,583.33 C308.22,584.27 308.40,584.89 308.42,585.00 C308.42,585.02 308.36,585.04 308.25,585.07 ZM 643.70 603.77 C644.30,602.87 644.82,602.12 645.30,601.49 C644.82,602.20 644.30,602.96 643.70,603.77 Z" fill="rgb(43,61,77)"/>
<path d="M 0.00 512.00 L 0.00 0.00 L 512.00 0.00 L 1024.00 0.00 L 1024.00 512.00 L 1024.00 1024.00 L 512.00 1024.00 L 0.00 1024.00 L 0.00 512.00 ZM 484.80 765.60 C486.28,764.83 520.54,730.96 560.91,690.35 C626.24,624.64 641.01,608.96 646.58,599.43 C647.57,597.74 649.57,597.55 670.08,597.19 C688.50,596.86 692.81,596.51 694.25,595.24 C695.87,593.80 696.00,590.06 696.00,543.85 L 696.00 494.00 L 745.28 494.00 C788.26,494.00 794.84,493.80 796.78,492.44 L 799.00 490.89 L 799.00 436.07 C799.00,391.44 798.75,381.04 797.66,380.13 C796.72,379.36 781.24,378.94 746.41,378.76 L 696.50 378.50 L 696.00 328.40 C695.60,287.97 695.24,277.99 694.13,276.65 C692.88,275.15 687.74,275.00 638.53,275.00 C587.39,275.00 584.22,275.10 582.66,276.82 C581.19,278.45 580.99,283.86 580.76,328.57 L 580.50 378.50 L 530.50 378.74 C480.93,378.98 480.48,379.00 478.75,381.10 C477.19,382.99 477.00,385.82 477.00,406.92 C477.00,429.39 477.11,430.74 479.04,432.81 C481.29,435.23 483.14,435.53 486.07,433.96 C487.89,432.99 488.00,431.66 488.00,411.46 L 488.00 390.00 L 538.00 390.00 C586.67,390.00 588.05,389.95 590.00,388.00 C591.95,386.05 592.00,384.67 592.00,336.00 L 592.00 286.00 L 638.50 286.00 L 685.00 286.00 L 685.00 335.96 L 685.00 385.92 L 687.19 387.96 C689.33,389.96 690.44,390.00 739.20,390.00 L 789.02 390.00 L 788.76 436.25 L 788.50 482.50 L 737.83 483.00 C709.97,483.27 686.79,483.87 686.33,484.33 C685.87,484.79 685.28,507.74 685.00,535.33 L 684.50 585.50 L 669.13 585.78 C655.07,586.03 653.82,585.91 654.41,584.37 C658.43,573.89 662.00,554.98 662.00,544.13 C662.00,523.05 653.83,497.77 641.77,481.50 C630.43,466.21 618.82,456.16 603.39,448.28 C584.31,438.54 568.84,435.24 547.17,436.30 C525.03,437.39 502.64,446.07 486.18,459.94 L 481.06 464.26 L 477.56 461.19 C464.37,449.60 445.46,440.83 426.56,437.54 C375.37,428.61 325.15,458.10 307.04,507.72 C299.07,529.56 298.82,556.63 306.40,578.31 C307.67,581.96 308.48,585.19 308.19,585.47 C307.90,585.76 297.31,586.00 284.66,586.00 C264.66,586.00 261.42,586.22 259.83,587.65 C257.58,589.69 257.46,593.32 259.57,595.43 C261.17,597.02 263.65,597.14 303.84,597.43 C315.51,597.51 313.75,596.43 322.23,608.67 C328.17,617.24 477.70,767.00 480.32,767.00 C481.30,767.00 483.31,766.37 484.80,765.60 Z" fill="rgb(254,254,254)"/>
</g>
</svg>